Coordinates
version=1
nRows=10
nColumns=22
inDegrees=yes

Units are S.I. units (second, meters, Newtons, ...)
If the header above contains a line with 'inDegrees', this indicates whether rotational values are in degrees (yes) or radians (no).

endheader
time	pelvis_tilt	pelvis_list	pelvis_rotation	pelvis_tx	pelvis_ty	pelvis_tz	hip_flexion_r	hip_adduction_r	hip_rotation_r	knee_angle_r	ankle_angle_r	subtalar_angle_r	hip_flexion_l	hip_adduction_l	hip_rotation_l	knee_angle_l	ankle_angle_l	subtalar_angle_l	lumbar_extension	lumbar_bending	lumbar_rotation
      1.34000000	     -2.44933991	     -0.87183089	    -31.89424789	     -0.89121632	      0.89881839	     -0.43068447	     23.37327067	     -1.52405367	     -2.88749792	    -42.16727501	     17.54575364	     -9.57639883	     -3.30875425	      2.40492519	    -15.35830509	    -11.25928221	     18.75865135	      0.47353981	    -10.60449763	     -0.15863240	      1.05502294
      1.35000000	     -2.52299428	     -0.99008996	    -31.75705827	     -0.88873024	      0.89869873	     -0.42942327	     23.70406474	     -1.32259570	     -3.32487791	    -41.30882918	     17.50234230	     -9.52158474	     -3.57930441	      2.26780419	    -15.24833771	    -11.11247261	     18.84750890	      0.56858152	    -10.69988870	      0.02896182	      0.85974102
      1.36000000	     -2.57064983	     -1.12916691	    -31.62467836	     -0.88611189	      0.89858531	     -0.42802544	     23.95296640	     -1.11028085	     -3.75643733	    -40.32473415	     17.43812755	     -9.41579405	     -3.89378068	      2.12324390	    -15.12977476	    -10.97478144	     18.95323780	      0.64004571	    -10.82571900	      0.21878218	      0.68334186
      1.37000000	     -2.59777214	     -1.28759111	    -31.49572128	     -0.88338382	      0.89846765	     -0.42648066	     24.13108195	     -0.88044385	     -4.17876785	    -39.23231748	     17.35419475	     -9.26162712	     -4.24290035	      1.96681373	    -15.00490513	    -10.84987690	     19.07659261	      0.69725517	    -10.97558931	      0.40695633	      0.52316727
      1.38000000	     -2.60767730	     -1.45810225	    -31.37025029	     -0.88052944	      0.89832475	     -0.42480915	     24.25030870	     -0.64011143	     -4.58806667	    -38.05050446	     17.25325788	     -9.05875637	     -4.61941232	      1.80317310	    -14.88390813	    -10.74086272	     19.22022902	      0.75114778	    -11.14273042	      0.59571218	      0.37699682
      1.39000000	     -2.60691154	     -1.63304339	    -31.24661296	     -0.87757968	      0.89813439	     -0.42301352	     24.33002150	     -0.39063072	     -4.98392528	    -36.80000958	     17.13672243	     -8.81220664	     -5.00840652	      1.63316831	    -14.77583222	    -10.65100025	     19.38471422	      0.80897385	    -11.31598144	      0.77830008	      0.24191105
      1.40000000	     -2.57716667	     -1.80856946	    -31.13229132	     -0.87453347	      0.89790779	     -0.42108827	     24.35883345	     -0.14234822	     -5.35462945	    -35.49664254	     17.04251706	     -8.42523932	     -5.44030415	      1.47736530	    -14.66381624	    -10.55208795	     19.54791342	      0.89959311	    -11.51331140	      0.93725778	      0.13816831
      1.41000000	     -2.57946135	     -1.96910954	    -31.01159672	     -0.87143193	      0.89754999	     -0.41905809	     24.41217318	      0.11837509	     -5.72144592	    -34.16209150	     16.90333736	     -8.07061539	     -5.81614046	      1.30192590	    -14.58928039	    -10.50102752	     19.74908697	      0.98467363	    -11.66446247	      1.09702764	      0.02791135
      1.42000000	     -2.58583754	     -2.11224019	    -30.89139842	     -0.86827330	      0.89708718	     -0.41693036	     24.47105250	      0.37256398	     -6.07776170	    -32.81475272	     16.75827778	     -7.68509619	     -6.17525578	      1.13153066	    -14.53055106	    -10.47000184	     19.96601973	      1.08260395	    -11.79832546	      1.23778403	     -0.06813704
      1.43000000	     -2.60380019	     -2.23391060	    -30.76515817	     -0.86507054	      0.89650635	     -0.41471495	     24.54779722	      0.61712588	     -6.42905477	    -31.46844916	     16.60491559	     -7.27100223	     -6.50441017	      0.96437387	    -14.47949844	    -10.46295866	     20.20392914	      1.18978966	    -11.90680087	      1.35979589	     -0.16138688
